# AST/ASF file generated using VICON BodyLanguage
# -----------------------------------------------
:version 1.10
:name VICON
:units
  mass 1.0
  length 0.45
  angle deg
:documentation
   .ast/.asf automatically generated from VICON data using
   VICON BodyBuilder and BodyLanguage model FoxedUp or BRILLIANT.MOD
:root
   order TX TY TZ RX RY RZ
   axis XYZ
   position 0 0 0  
   orientation 0 0 0 
:bonedata
  begin
     id 1 
     name lhipjoint
     direction 0.577973 -0.728611 0.367523 
     length 2.48544 
     axis 0 0 0  XYZ
  end
  begin
     id 2 
     name lfemur
     direction 0.34202 -0.939693 0  
     length 7.1921  
     axis 0 0 20  XYZ
    dof rx ry rz
    limits (-160.0 20.0)
           (-70.0 70.0)
           (-60.0 70.0)
  end
  begin
     id 3 
     name ltibia
     direction 0.34202 -0.939693 0   
     length 7.71059   
     axis 0 0 20   XYZ
    dof rx
    limits (-10.0 170.0)
  end
  begin
     id 4 
     name lfoot
     direction 0.089538 -0.246004 0.965124   
     length 2.19909   
     axis -90 7.62852e-016 20   XYZ
    dof rx rz
    limits (-45.0 90.0)
           (-70.0 20.0)
  end
  begin
     id 5 
     name ltoes
     direction 1.53544e-011 -4.21829e-011 1   
     length 1.10116   
     axis -90 7.62852e-016 20   XYZ
    dof rx
    limits (-90.0 20.0)
  end
  begin
     id 6 
     name rhipjoint
     direction -0.554414 -0.743062 0.374812   
     length 2.4371  
     axis 0 0 0  XYZ 
  end
  begin
     id 7 
     name rfemur
     direction -0.34202 -0.939693 0   
     length 7.47254   
     axis 0 0 -20   XYZ
    dof rx ry rz
    limits (-160.0 20.0)
           (-70.0 70.0)
           (-70.0 60.0)
  end
  begin
     id 8 
     name rtibia
     direction -0.34202 -0.939693 0   
     length 7.65855   
     axis 0 0 -20   XYZ
    dof rx
    limits (-10.0 170.0)
 end
 begin
     id 9 
     name rfoot
     direction -0.133779 -0.367555 0.92033   
     length 2.43006  
     axis -90 -7.62852e-016 -20   XYZ
    dof rx rz
    limits (-45.0 90.0)
           (-20.0 70.0)
  end
  begin
     id 10 
     name rtoes
     direction -1.53563e-011 -4.21889e-011 1   
     length 1.19625   
     axis -90 -7.62852e-016 -20   XYZ
    dof rx
    limits (-90.0 20.0)
  end
  begin
     id 11 
     name lowerback
     direction 0.0249066 0.998043 -0.0573585   
     length 2.08485   
     axis 0 0 0   XYZ
    dof rx ry rz
    limits (-20.0 45.0)
           (-30.0 30.0)
           (-30.0 30.0)
  end
  begin
     id 12 
     name upperback
     direction 0.0237884 0.999673 0.00943178   
     length 2.08515   
     axis 0 0 0   XYZ
    dof rx ry rz
    limits (-20.0 45.0)
           (-30.0 30.0)
           (-30.0 30.0)
  end
  begin
     id 13 
     name thorax
     direction 0.0106671 0.999301 0.0358174   
     length 2.09037   
     axis 0 0 0   XYZ
    dof rx ry rz
    limits (-20.0 45.0)
           (-30.0 30.0)
           (-30.0 30.0)
  end
  begin
     id 14 
     name lowerneck
     direction -0.0580016 0.987052 0.149546   
     length 1.84454   
     axis 0 0 0   XYZ
    dof rx ry rz
    limits (-20.0 45.0)
           (-30.0 30.0)
           (-30.0 30.0)
  end
  begin
     id 15 
     name upperneck
     direction 0.079456 0.981963 -0.171567   
     length 1.88141   
     axis 0 0 0   XYZ
    dof rx ry rz
    limits (-20.0 45.0)
           (-30.0 30.0)
           (-30.0 30.0)
  end
  begin
     id 16
     name head
     direction 0.0262167 0.9967 -0.0768276  
     length 1.89541  
     axis 0 0 0   XYZ
    dof rx ry rz
    limits (-20.0 45.0)
           (-30.0 30.0)
           (-30.0 30.0)
  end
  begin
     id 17 
     name lclavicle
     direction 0.946135 0.322134 -0.0325326  
     length 3.949  
     axis 0 0 0   XYZ
    dof ry rz
    limits (-20.0 10.0)
           (0.0 20.0)
  end
  begin
     id 18 
     name lhumerus
     direction 1 -4.48964e-011 1.94005e-028   
     length 5.10995   
     axis 180 -30 -90   XYZ
    dof rx ry rz
    limits (-60.0 90.0)
           (-90.0 90.0)
           (-90.0 90.0)
  end
  begin
     id 19
     name lradius
     direction 1 -4.48976e-011 2.87852e-027   
     length 3.21207   
     axis 180 -30 -90   XYZ
    dof rx
    limits (-10.0 170.0)
  end
  begin
     id 20
     name lwrist
     direction 1 -4.48963e-011 1.9975e-027   
     length 1.60604   
     axis 2.96054e-016 90 90   XYZ
    dof ry
    limits (-180.0 0.0)
 end
  begin
     id 21 
     name lhand
     direction 1 -4.48919e-011 4.00227e-027   
     length 0.63349   
     axis -2.5488e-015 90 90   XYZ
    dof rx rz
    limits (-90.0 90.0)
           (-45.0 45.0)
  end
  begin
     id 22 
     name lfingers
     direction 1 -4.49037e-011 7.9652e-027   
     length 0.510736   
     axis -5.0975e-015 90 90   XYZ
    dof rx
    limits (0.0 90.0)
  end
  begin
     id 23
     name lthumb
     direction 0.707107 -6.34922e-011 0.707107   
     length 0.733318   
     axis -90 45 -4.48553e-014   XYZ
    dof rx rz
    limits (-45.0 45.0)
           (-45.0 45.0)
  end
  begin
     id 24 
     name rclavicle
     direction -0.940085 0.328911 -0.0897654   
     length 3.93848  
     axis 0 0 0   XYZ 
    dof ry rz
    limits (-10.0 20.0)
           (-20.0 0.0)
  end
  begin
     id 25 
     name rhumerus
     direction -1 -4.48958e-011 3.02044e-027  
     length 5.25109   
     axis 180 30 90   XYZ
    dof rx ry rz
    limits (-90.0 60.0)
           (-90.0 90.0)
           (-90.0 90.0)
  end
  begin
     id 26 
     name rradius
     direction -1 -4.4897e-011 9.78352e-028   
     length 3.28364   
     axis 180 30 90   XYZ
    dof rx
    limits (-10.0 170.0)
  end
  begin
     id 27 
     name rwrist
     direction -1 -4.48943e-011 1.99918e-027   
     length 1.64182   
     axis 2.96054e-016 -90 -90   XYZ
    dof ry
    limits (-180.0 0.0)
  end
  begin
     id 28
     name rhand
     direction -1 -4.49024e-011 3.98478e-027   
     length 0.599745   
     axis -2.5488e-015 -90 -90   XYZ
    dof rx rz
    limits (-90.0 90.0)
           (-45.0 45.0)
  end
  begin
     id 29
     name rfingers
     direction -1 -4.48914e-011 8.00621e-027   
     length 0.48353   
     axis -5.0975e-015 -90 -90   XYZ
    dof rx
    limits (0.0 90.0)
  end
  begin
     id 30
     name rthumb
     direction -0.707107 -6.34992e-011 0.707107   
     length 0.694255   
     axis -90 -45 4.48553e-014   XYZ
    dof rx rz
    limits (-45.0 45.0)
           (-45.0 45.0)
  end
:hierarchy
  begin
    root lhipjoint rhipjoint lowerback
    lhipjoint lfemur
    lfemur ltibia
    ltibia lfoot
    lfoot ltoes
    rhipjoint rfemur
    rfemur rtibia
    rtibia rfoot
    rfoot rtoes
    lowerback upperback
    upperback thorax
    thorax lowerneck lclavicle rclavicle
    lowerneck upperneck
    upperneck head
    lclavicle lhumerus
    lhumerus lradius
    lradius lwrist
    lwrist lhand lthumb
    lhand lfingers
    rclavicle rhumerus
    rhumerus rradius
    rradius rwrist
    rwrist rhand rthumb
    rhand rfingers
  end

#!OML:ASF E:\CV Data\Top Level 1\Subject 1\Session 1\player.ASF
:FULLY-SPECIFIED
:DEGREES
232
root 6.25929 17.8082 -3.16624 14.9245 -1.02425 0.515051
lowerback 4.82336 3.95772 -0.978446
upperback -1.79624 5.27918 1.25314
thorax -4.76608 2.66865 1.3657
lowerneck -12.3391 -13.1682 -16.393
upperneck 5.21163 -16.4092 13.9728
head 6.0973 -7.65238 5.24205
rclavicle -2.50469e-014 -3.18055e-015
rhumerus -5.27597 10.8055 -72.6506
rradius 62.0806
rwrist -38.482
rhand -23.9186 -11.1284
rfingers 7.12502
rthumb 2.55599 -41.0928
lclavicle -2.50469e-014 -3.18055e-015
lhumerus -32.5872 -7.16271 85.8633
lradius 96.4914
lwrist 51.0028
lhand -25.2233 26.3946
lfingers 7.12502
lthumb 1.29595 56.3704
rfemur -9.28304 -13.9517 13.4449
rtibia 17.7467
rfoot -19.2728 -33.0932
rtoes 6.12235
lfemur -26.0723 -2.9773 -22.3777
ltibia 19.8789
lfoot -6.76827 -15.1669
ltoes 9.40052
233
root 6.2557 17.8085 -3.16973 14.8795 -1.12084 0.525079
lowerback 4.80011 3.94659 -0.976868
upperback -1.79527 5.26457 1.25519
thorax -4.75142 2.66142 1.37007
lowerneck -12.3388 -13.1378 -16.3886
upperneck 5.26509 -16.3694 13.9384
head 6.10437 -7.63457 5.23611
rclavicle -3.57812e-014 -1.27222e-014
rhumerus -5.53008 10.7908 -72.9661
rradius 62.1017
rwrist -38.4961
rhand -23.9844 -11.0808
rfingers 7.12502
rthumb 2.49241 -41.046
lclavicle -3.57812e-014 -1.27222e-014
lhumerus -32.6248 -7.15698 85.8943
lradius 96.4662
lwrist 50.9726
lhand -25.2878 26.4195
lfingers 7.12502
lthumb 1.23357 56.3957
rfemur -9.27989 -13.9015 13.421
rtibia 17.7693
rfoot -19.244 -33.0633
rtoes 6.08317
lfemur -26.0131 -2.93671 -22.3843
ltibia 19.8529
lfoot -6.7627 -15.1092
ltoes 9.34223
234
root 6.25211 17.8088 -3.17328 14.8366 -1.21456 0.532145
lowerback 4.77822 3.93865 -0.971629
upperback -1.80059 5.2544 1.25409
thorax -4.7436 2.65628 1.36838
lowerneck -12.327 -13.1087 -16.378
upperneck 5.3277 -16.3346 13.8989
head 6.11222 -7.61979 5.22735
rclavicle -3.04141e-014 -3.18055e-015
rhumerus -5.78412 10.7668 -73.2822
rradius 62.121
rwrist -38.508
rhand -24.0642 -11.0484
rfingers 7.12502
rthumb 2.41531 -41.0144
lclavicle -3.04141e-014 -3.18055e-015
lhumerus -32.6736 -7.16466 85.9263
lradius 96.4463
lwrist 50.9426
lhand -25.3708 26.4514
lfingers 7.12502
lthumb 1.15349 56.428
rfemur -9.27734 -13.8532 13.4019
rtibia 17.7902
rfoot -19.2171 -33.0329
rtoes 6.05727
lfemur -25.9567 -2.89746 -22.3871
ltibia 19.8281
lfoot -6.75946 -15.0507
ltoes 9.28449
235
root 6.24844 17.8092 -3.17683 14.7953 -1.30574 0.533317
lowerback 4.76019 3.93135 -0.962883
upperback -1.80899 5.24538 1.25361
thorax -4.74097 2.65163 1.36488
lowerneck -12.3222 -13.0824 -16.364
upperneck 5.40416 -16.3036 13.853
head 6.12522 -7.60666 5.21489
rclavicle -5.56597e-015 6.36111e-015
rhumerus -6.03152 10.7481 -73.5937
rradius 62.1449
rwrist -38.5297
rhand -24.1567 -11.03
rfingers 7.12502
rthumb 2.32605 -40.997
lclavicle -5.56597e-015 6.36111e-015
lhumerus -32.7261 -7.17656 85.9584
lradius 96.4296
lwrist 50.9149
lhand -25.4774 26.4916
lfingers 7.12502
lthumb 1.05048 56.4688
rfemur -9.27307 -13.8025 13.3905
rtibia 17.8065
rfoot -19.1961 -33.003
rtoes 6.05836
lfemur -25.9033 -2.8611 -22.3819
ltibia 19.8061
lfoot -6.75622 -14.9884
ltoes 9.23209
236
root 6.24484 17.8096 -3.1802 14.7523 -1.39625 0.528725
lowerback 4.74621 3.924 -0.950725
upperback -1.8153 5.23658 1.25562
thorax -4.73839 2.647 1.36182
lowerneck -12.3394 -13.059 -16.3473
upperneck 5.49677 -16.2741 13.7994
head 6.14613 -7.59361 5.19789
rclavicle 1.55052e-014 1.59028e-015
rhumerus -6.26519 10.7461 -73.8955
rradius 62.1776
rwrist -38.576
rhand -24.2742 -11.018
rfingers 7.12502
rthumb 2.2125 -40.9863
lclavicle 1.55052e-014 1.59028e-015
lhumerus -32.7741 -7.1861 85.9918
lradius 96.4142
lwrist 50.8858
lhand -25.6053 26.5515
lfingers 7.12502
lthumb 0.926923 56.5292
rfemur -9.26266 -13.7512 13.3848
rtibia 17.8167
rfoot -19.1772 -32.972
rtoes 6.07956
lfemur -25.8487 -2.82571 -22.37
ltibia 19.7874
lfoot -6.75448 -14.923
ltoes 9.18339
237
root 6.24131 17.81 -3.18336 14.7071 -1.48451 0.520765
lowerback 4.73221 3.91367 -0.938972
upperback -1.81449 5.22391 1.26342
thorax -4.72883 2.64051 1.3656
lowerneck -12.3885 -13.0391 -16.3357
upperneck 5.60335 -16.2441 13.7405
head 6.17644 -7.5792 5.17818
rclavicle -9.10434e-014 8.74653e-015
rhumerus -6.47421 10.77 -74.1822
rradius 62.2182
rwrist -38.6489
rhand -24.4298 -10.9944
rfingers 7.12502
rthumb 2.06225 -40.9642
lclavicle -9.10434e-014 8.74653e-015
lhumerus -32.8066 -7.18231 86.03
lradius 96.3943
lwrist 50.8548
lhand -25.7565 26.6247
lfingers 7.12502
lthumb 0.780929 56.603
rfemur -9.24498 -13.7024 13.3821
rtibia 17.8198
rfoot -19.1568 -32.9402
rtoes 6.10669
lfemur -25.7927 -2.79464 -22.3537
ltibia 19.7723
lfoot -6.75545 -14.8522
ltoes 9.13192
238
root 6.23785 17.8103 -3.18634 14.6597 -1.57224 0.509754
lowerback 4.71468 3.90175 -0.927719
upperback -1.80773 5.20923 1.27625
thorax -4.71152 2.63307 1.37552
lowerneck -12.4594 -13.0222 -16.3302
upperneck 5.72286 -16.2144 13.678
head 6.21456 -7.56427 5.15681
rclavicle 7.33515e-014 5.56597e-015
rhumerus -6.66069 10.8138 -74.4551
rradius 62.2634
rwrist -38.7371
rhand -24.5903 -10.9659
rfingers 7.12502
rthumb 1.90729 -40.9371
lclavicle 7.33515e-014 5.56597e-015
lhumerus -32.8299 -7.16845 86.0738
lradius 96.3726
lwrist 50.8213
lhand -25.9221 26.7068
lfingers 7.12502
lthumb 0.620969 56.6857
rfemur -9.22127 -13.654 13.382
rtibia 17.8169
rfoot -19.129 -32.9097
rtoes 6.12046
lfemur -25.7352 -2.7666 -22.3333
ltibia 19.7605
lfoot -6.75698 -14.7771
ltoes 9.08911
239
root 6.23441 17.8105 -3.18925 14.6128 -1.65642 0.495853
lowerback 4.68803 3.88991 -0.915836
upperback -1.79696 5.19479 1.29206
thorax -4.68512 2.62577 1.38894
lowerneck -12.531 -13.0069 -16.3292
upperneck 5.83996 -16.1858 13.6166
head 6.25272 -7.54997 5.13623
rclavicle -1.94809e-014 -1.59028e-015
rhumerus -6.83639 10.8655 -74.7148
rradius 62.3174
rwrist -38.8269
rhand -24.7537 -10.921
rfingers 7.12502
rthumb 1.74947 -40.8936
lclavicle -1.94809e-014 -1.59028e-015
lhumerus -32.8439 -7.15502 86.1238
lradius 96.3462
lwrist 50.7855
lhand -26.1177 26.8067
lfingers 7.12502
lthumb 0.432031 56.786
rfemur -9.19481 -13.6052 13.3857
rtibia 17.8093
rfoot -19.0995 -32.8817
rtoes 6.12279
lfemur -25.6794 -2.74302 -22.3085
ltibia 19.7508
lfoot -6.7596 -14.6996
ltoes 9.04581
240
root 6.23102 17.8108 -3.19215 14.5668 -1.73845 0.482999
lowerback 4.65465 3.88077 -0.905022
upperback -1.78583 5.18379 1.30563
thorax -4.65453 2.62017 1.40082
lowerneck -12.5905 -12.9931 -16.3262
upperneck 5.95037 -16.1607 13.5555
head 6.28728 -7.53794 5.11567
rclavicle -2.48481e-014 2.14687e-014
rhumerus -7.00301 10.9095 -74.9663
rradius 62.3717
rwrist -38.8996
rhand -24.8986 -10.8609
rfingers 7.12502
rthumb 1.60951 -40.8346
lclavicle -2.48481e-014 2.14687e-014
lhumerus -32.8533 -7.15139 86.1768
lradius 96.3164
lwrist 50.7493
lhand -26.3308 26.916
lfingers 7.12502
lthumb 0.226277 56.8957
rfemur -9.16706 -13.5564 13.3885
rtibia 17.7982
rfoot -19.0692 -32.856
rtoes 6.1136
lfemur -25.6255 -2.72133 -22.2847
ltibia 19.7421
lfoot -6.76321 -14.6222
ltoes 8.99674
241
root 6.22765 17.811 -3.19502 14.5231 -1.8191 0.470153
lowerback 4.62283 3.8766 -0.892637
upperback -1.78586 5.17943 1.31354
thorax -4.63602 2.61783 1.40482
lowerneck -12.6104 -12.9789 -16.3173
upperneck 6.04767 -16.1411 13.4947
head 6.31168 -7.53027 5.09572
rclavicle -7.35503e-014 8.74653e-015
rhumerus -7.18237 10.9333 -75.2192
rradius 62.4251
rwrist -38.9406
rhand -25.011 -10.8014
rfingers 7.12502
rthumb 1.50096 -40.7759
lclavicle -7.35503e-014 8.74653e-015
lhumerus -32.8786 -7.1699 86.2306
lradius 96.2871
lwrist 50.7163
lhand -26.56 27.0363
lfingers 7.12502
lthumb 0.00486214 57.016
rfemur -9.13954 -13.5049 13.3915
rtibia 17.7843
rfoot -19.0376 -32.8319
rtoes 6.09202
lfemur -25.5742 -2.70525 -22.2593
ltibia 19.7335
lfoot -6.76547 -14.5414
ltoes 8.94086
242
root 6.22433 17.8112 -3.19781 14.4813 -1.90281 0.458932
lowerback 4.58969 3.87723 -0.880447
upperback -1.79498 5.18137 1.31551
thorax -4.62592 2.61859 1.40194
lowerneck -12.5928 -12.9612 -16.308
upperneck 6.13405 -16.1224 13.4393
head 6.32722 -7.5244 5.07941
rclavicle -3.75703e-014 -1.59028e-014
rhumerus -7.36571 10.9347 -75.4755
rradius 62.4686
rwrist -38.9364
rhand -25.078 -10.7496
rfingers 7.12502
rthumb 1.43619 -40.7245
lclavicle -3.75703e-014 -1.59028e-014
lhumerus -32.9194 -7.20385 86.2832
lradius 96.2603
lwrist 50.6834
lhand -26.8153 27.1739
lfingers 7.12502
lthumb -0.241709 57.1536
rfemur -9.1124 -13.4474 13.3919
rtibia 17.7681
rfoot -19.0119 -32.8063
rtoes 6.08423
lfemur -25.5242 -2.6914 -22.2355
ltibia 19.7241
lfoot -6.76864 -14.4557
ltoes 8.86855
243
root 6.221 17.8115 -3.20046 14.4397 -1.99178 0.448364
lowerback 4.56306 3.88326 -0.869522
upperback -1.81129 5.1903 1.31248
thorax -4.62688 2.62283 1.39322
lowerneck -12.557 -12.9432 -16.2978
upperneck 6.2155 -16.1064 13.3884
head 6.33904 -7.52036 5.06497
rclavicle 1.45113e-014 -7.15625e-015
rhumerus -7.55107 10.9177 -75.7321
rradius 62.5068
rwrist -38.8966
rhand -25.1075 -10.705
rfingers 7.12502
rthumb 1.40778 -40.6801
lclavicle 1.45113e-014 -7.15625e-015
lhumerus -32.9695 -7.2514 86.3342
lradius 96.236
lwrist 50.6541
lhand -27.0999 27.3339
lfingers 7.12502
lthumb -0.516558 57.313
rfemur -9.08322 -13.3812 13.3901
rtibia 17.7479
rfoot -18.9897 -32.781
rtoes 6.08914
lfemur -25.4733 -2.67877 -22.2122
ltibia 19.7141
lfoot -6.77184 -14.364
ltoes 8.78258
244
root 6.21774 17.8117 -3.20283 14.3949 -2.08673 0.439233
lowerback 4.54345 3.89323 -0.860737
upperback -1.82907 5.20423 1.3065
thorax -4.63345 2.62956 1.38163
lowerneck -12.5269 -12.9255 -16.2895
upperneck 6.3053 -16.0907 13.34
head 6.3549 -7.51609 5.05113
rclavicle -1.72943e-014 -7.95139e-016
rhumerus -7.73168 10.894 -75.9859
rradius 62.5462
rwrist -38.8443
rhand -25.1177 -10.6632
rfingers 7.12502
rthumb 1.39787 -40.6384
lclavicle -1.72943e-014 -7.95139e-016
lhumerus -33.0262 -7.30456 86.3843
lradius 96.2182
lwrist 50.6244
lhand -27.4109 27.5093
lfingers 7.12502
lthumb -0.816959 57.4875
rfemur -9.04755 -13.3099 13.384
rtibia 17.7229
rfoot -18.9732 -32.7523
rtoes 6.11064
lfemur -25.4171 -2.66769 -22.1907
ltibia 19.7037
lfoot -6.77526 -14.266
ltoes 8.69027
245
root 6.21457 17.8118 -3.2048 14.3465 -2.18687 0.430483
lowerback 4.53126 3.90598 -0.855197
upperback -1.84532 5.22165 1.30093
thorax -4.64307 2.6381 1.37148
lowerneck -12.514 -12.9096 -16.2858
upperneck 6.4029 -16.0747 13.2921
head 6.37643 -7.51095 5.03713
rclavicle -9.0447e-014 -3.02153e-014
rhumerus -7.90338 10.8711 -76.2331
rradius 62.5898
rwrist -38.7938
rhand -25.137 -10.6188
rfingers 7.12502
rthumb 1.37929 -40.5941
lclavicle -9.0447e-014 -3.02153e-014
lhumerus -33.0803 -7.35722 86.436
lradius 96.2019
lwrist 50.5912
lhand -27.7342 27.6999
lfingers 7.12502
lthumb -1.12922 57.6767
rfemur -9.00387 -13.2334 13.3746
rtibia 17.6919
rfoot -18.9568 -32.7219
rtoes 6.13578
lfemur -25.3552 -2.6554 -22.1707
ltibia 19.6931
lfoot -6.77949 -14.1639
ltoes 8.59757
246
root 6.21142 17.812 -3.20654 14.2959 -2.28777 0.422287
lowerback 4.51548 3.91802 -0.853172
upperback -1.85317 5.23791 1.29836
thorax -4.64247 2.64615 1.36706
lowerneck -12.5284 -12.8955 -16.2882
upperneck 6.50922 -16.0564 13.2441
head 6.40534 -7.50372 5.02279
rclavicle 4.69132e-014 -2.38542e-015
rhumerus -8.04461 10.858 -76.4707
rradius 62.6303
rwrist -38.7571
rhand -25.1746 -10.5737
rfingers 7.12502
rthumb 1.34294 -40.5492
lclavicle 4.69132e-014 -2.38542e-015
lhumerus -33.1247 -7.40026 86.4896
lradius 96.1885
lwrist 50.5522
lhand -27.5963 27.6637
lfingers 7.12502
lthumb -0.99603 57.6411
rfemur -8.95366 -13.1566 13.3638
rtibia 17.6556
rfoot -18.9414 -32.691
rtoes 6.16662
lfemur -25.2887 -2.63934 -22.1526
ltibia 19.6813
lfoot -6.78374 -14.0659
ltoes 8.5186
